<svg width="184" height="66" viewBox="0 0 184 66" fill="none" xmlns="http://www.w3.org/2000/svg">
<path d="M59.7101 20.97V25.08H51.13V29.52H57.5501V33.51H51.13V42.03H46V20.97H59.7101ZM61.3862 33.63C61.3862 31.91 61.7063 30.4 62.3463 29.1C63.0063 27.8 63.8963 26.8 65.0163 26.1C66.1363 25.4 67.3863 25.05 68.7663 25.05C69.9463 25.05 70.9763 25.29 71.8563 25.77C72.7563 26.25 73.4463 26.88 73.9263 27.66V25.29H79.0562V42.03H73.9263V39.66C73.4263 40.44 72.7263 41.07 71.8263 41.55C70.9463 42.03 69.9162 42.27 68.7362 42.27C67.3762 42.27 66.1363 41.92 65.0163 41.22C63.8963 40.5 63.0063 39.49 62.3463 38.19C61.7063 36.87 61.3862 35.35 61.3862 33.63ZM73.9263 33.66C73.9263 32.38 73.5663 31.37 72.8463 30.63C72.1463 29.89 71.2863 29.52 70.2663 29.52C69.2463 29.52 68.3763 29.89 67.6562 30.63C66.9563 31.35 66.6063 32.35 66.6063 33.63C66.6063 34.91 66.9563 35.93 67.6562 36.69C68.3763 37.43 69.2463 37.8 70.2663 37.8C71.2863 37.8 72.1463 37.43 72.8463 36.69C73.5663 35.95 73.9263 34.94 73.9263 33.66ZM81.7475 33.66C81.7475 31.92 82.0976 30.4 82.7976 29.1C83.5176 27.8 84.5075 26.8 85.7675 26.1C87.0475 25.4 88.5075 25.05 90.1475 25.05C92.2475 25.05 93.9975 25.6 95.3975 26.7C96.8175 27.8 97.7475 29.35 98.1875 31.35H92.7275C92.2675 30.07 91.3775 29.43 90.0575 29.43C89.1175 29.43 88.3675 29.8 87.8075 30.54C87.2475 31.26 86.9675 32.3 86.9675 33.66C86.9675 35.02 87.2475 36.07 87.8075 36.81C88.3675 37.53 89.1175 37.89 90.0575 37.89C91.3775 37.89 92.2675 37.25 92.7275 35.97H98.1875C97.7475 37.93 96.8175 39.47 95.3975 40.59C93.9775 41.71 92.2275 42.27 90.1475 42.27C88.5075 42.27 87.0475 41.92 85.7675 41.22C84.5075 40.52 83.5176 39.52 82.7976 38.22C82.0976 36.92 81.7475 35.4 81.7475 33.66ZM103.512 23.55C102.612 23.55 101.872 23.29 101.292 22.77C100.732 22.23 100.452 21.57 100.452 20.79C100.452 19.99 100.732 19.33 101.292 18.81C101.872 18.27 102.612 18 103.512 18C104.392 18 105.112 18.27 105.672 18.81C106.252 19.33 106.542 19.99 106.542 20.79C106.542 21.57 106.252 22.23 105.672 22.77C105.112 23.29 104.392 23.55 103.512 23.55ZM106.062 25.29V42.03H100.932V25.29H106.062ZM114.909 19.83V42.03H109.779V19.83H114.909ZM121.207 23.55C120.307 23.55 119.567 23.29 118.987 22.77C118.427 22.23 118.147 21.57 118.147 20.79C118.147 19.99 118.427 19.33 118.987 18.81C119.567 18.27 120.307 18 121.207 18C122.087 18 122.807 18.27 123.367 18.81C123.947 19.33 124.237 19.99 124.237 20.79C124.237 21.57 123.947 22.23 123.367 22.77C122.807 23.29 122.087 23.55 121.207 23.55ZM123.757 25.29V42.03H118.627V25.29H123.757ZM180.646 42.27C179.746 42.27 179.006 42.01 178.426 41.49C177.866 40.95 177.586 40.29 177.586 39.51C177.586 38.71 177.866 38.04 178.426 37.5C179.006 36.96 179.746 36.69 180.646 36.69C181.526 36.69 182.246 36.96 182.806 37.5C183.386 38.04 183.676 38.71 183.676 39.51C183.676 40.29 183.386 40.95 182.806 41.49C182.246 42.01 181.526 42.27 180.646 42.27Z" fill="white"/>
<path d="M142.624 20.97V25.08H137.044V42.03H131.914V25.08H126.334V20.97H142.624ZM161.729 25.29V42.03H156.599V39.75C156.079 40.49 155.369 41.09 154.469 41.55C153.589 41.99 152.609 42.21 151.529 42.21C150.249 42.21 149.119 41.93 148.139 41.37C147.159 40.79 146.399 39.96 145.859 38.88C145.319 37.8 145.049 36.53 145.049 35.07V25.29H150.149V34.38C150.149 35.5 150.439 36.37 151.019 36.99C151.599 37.61 152.379 37.92 153.359 37.92C154.359 37.92 155.149 37.61 155.729 36.99C156.309 36.37 156.599 35.5 156.599 34.38V25.29H161.729ZM170.544 28.08C171.144 27.16 171.894 26.44 172.794 25.92C173.694 25.38 174.694 25.11 175.794 25.11V30.54H174.384C173.104 30.54 172.144 30.82 171.504 31.38C170.864 31.92 170.544 32.88 170.544 34.26V42.03H165.414V25.29H170.544V28.08Z" fill="#FF9A3D"/>
<path d="M23 54.5C23 51.4624 20.5376 49 17.5 49C14.4624 49 12 51.4624 12 54.5C12 57.5376 14.4624 60 17.5 60C20.5376 60 23 57.5376 23 54.5Z" fill="#FF9A3D"/>
<g filter="url(#filter0_d_113_14)">
<path d="M18 0C13.2277 0.00540155 8.65253 1.89928 5.27808 5.26615C1.90359 8.63301 0.00539429 13.1979 0 17.9594C0 33.3269 16.3637 44.9331 17.0611 45.4188C17.3363 45.6111 17.6641 45.7143 18 45.7143C18.336 45.7143 18.6637 45.6111 18.9389 45.4188C19.6363 44.9331 36 33.3269 36 17.9594C35.9945 13.1979 34.0965 8.63301 30.722 5.26615C27.3475 1.89928 22.7723 0.00540155 18 0ZM18 11.4287C19.2946 11.4287 20.56 11.8117 21.6365 12.5293C22.7129 13.2469 23.5518 14.2668 24.0472 15.4602C24.5426 16.6535 24.6722 17.9666 24.4197 19.2334C24.1671 20.5003 23.5437 21.6639 22.6283 22.5772C21.713 23.4906 20.5467 24.1125 19.2769 24.3646C18.0073 24.6165 16.6912 24.4872 15.4952 23.9929C14.2992 23.4987 13.2769 22.6616 12.5577 21.5876C11.8384 20.5136 11.4545 19.251 11.4545 17.9594C11.4545 16.2273 12.1441 14.5662 13.3717 13.3415C14.5992 12.1168 16.264 11.4287 18 11.4287Z" fill="#FF9A3D"/>
<path fill-rule="evenodd" clip-rule="evenodd" d="M21.636 12.5294C20.5596 11.8118 19.2941 11.4287 17.9996 11.4287C16.2636 11.4287 14.5987 12.1168 13.3712 13.3415C12.1437 14.5663 11.4541 16.2274 11.4541 17.9594C11.4541 19.2511 11.838 20.5137 12.5572 21.5877C13.2765 22.6616 14.2987 23.4987 15.4947 23.993C16.6908 24.4873 18.0068 24.6166 19.2765 24.3646C20.5462 24.1126 21.7125 23.4907 22.6279 22.5773C23.5433 21.664 24.1667 20.5003 24.4193 19.2335C24.6718 17.9667 24.5422 16.6535 24.0468 15.4602C23.5514 14.2669 22.7124 13.247 21.636 12.5294Z" fill="#FF9A3D"/>
</g>
<path d="M23.8966 14.7008V13.2414C23.8966 13.1774 23.8711 13.116 23.8259 13.0707C23.7806 13.0254 23.7192 13 23.6552 13C23.5912 13 23.5298 13.0254 23.4845 13.0707C23.4392 13.116 23.4138 13.1774 23.4138 13.2414V14.7008C22.7333 14.7629 22.103 15.0849 21.654 15.5999C21.2049 16.1149 20.9717 16.7831 21.0028 17.4657C21.0338 18.1483 21.3269 18.7925 21.8209 19.2646C22.3149 19.7366 22.9719 20 23.6552 20C24.3384 20 24.9954 19.7366 25.4895 19.2646C25.9835 18.7925 26.2765 18.1483 26.3076 17.4657C26.3387 16.7831 26.1054 16.1149 25.6564 15.5999C25.2073 15.0849 24.577 14.7629 23.8966 14.7008ZM25.8137 17.1034H24.8551C24.8096 16.2477 24.5296 15.6442 24.2686 15.261C24.6786 15.3825 25.0438 15.622 25.3185 15.9496C25.5933 16.2772 25.7656 16.6785 25.8137 17.1034ZM24.3721 17.5861C24.3117 18.5974 23.8854 19.1837 23.6552 19.429C23.4247 19.1831 22.9983 18.5972 22.9383 17.5861H24.3721ZM23.0418 15.261C22.7802 15.6442 22.5008 16.2477 22.4552 17.1034H21.4966C21.5448 16.6785 21.717 16.2772 21.9918 15.9496C22.2666 15.622 22.6317 15.3825 23.0418 15.261ZM21.4966 17.5861H22.4552C22.5008 18.4418 22.7808 19.0452 23.0418 19.4284C22.6317 19.307 22.2666 19.0675 21.9918 18.7399C21.717 18.4123 21.5448 18.011 21.4966 17.5861ZM28 15.4137C28 15.4778 27.9746 15.5391 27.9293 15.5844C27.884 15.6297 27.8226 15.6551 27.7586 15.6551H27.5172V15.8965C27.5172 15.9605 27.4918 16.0219 27.4465 16.0672C27.4013 16.1124 27.3399 16.1379 27.2759 16.1379C27.2118 16.1379 27.1504 16.1124 27.1052 16.0672C27.0599 16.0219 27.0345 15.9605 27.0345 15.8965V15.6551H26.7931C26.7291 15.6551 26.6677 15.6297 26.6224 15.5844C26.5771 15.5391 26.5517 15.4778 26.5517 15.4137C26.5517 15.3497 26.5771 15.2883 26.6224 15.2431C26.6677 15.1978 26.7291 15.1724 26.7931 15.1724H27.0345V14.931C27.0345 14.867 27.0599 14.8056 27.1052 14.7603C27.1504 14.715 27.2118 14.6896 27.2759 14.6896C27.3399 14.6896 27.4013 14.715 27.4465 14.7603C27.4918 14.8056 27.5172 14.867 27.5172 14.931V15.1724H27.7586C27.8226 15.1724 27.884 15.1978 27.9293 15.2431C27.9746 15.2883 28 15.3497 28 15.4137ZM24.8621 13.9655C24.8621 13.9015 24.8875 13.8401 24.9328 13.7948C24.9781 13.7496 25.0394 13.7241 25.1034 13.7241H25.5862V13.2414C25.5862 13.1774 25.6116 13.116 25.6569 13.0707C25.7022 13.0254 25.7635 13 25.8276 13C25.8916 13 25.953 13.0254 25.9983 13.0707C26.0435 13.116 26.069 13.1774 26.069 13.2414V13.7241H26.5517C26.6157 13.7241 26.6771 13.7496 26.7224 13.7948C26.7677 13.8401 26.7931 13.9015 26.7931 13.9655C26.7931 14.0295 26.7677 14.0909 26.7224 14.1362C26.6771 14.1815 26.6157 14.2068 26.5517 14.2068H26.069V14.6896C26.069 14.7536 26.0435 14.815 25.9983 14.8603C25.953 14.9055 25.8916 14.931 25.8276 14.931C25.7635 14.931 25.7022 14.9055 25.6569 14.8603C25.6116 14.815 25.5862 14.7536 25.5862 14.6896V14.2068H25.1034C25.0394 14.2068 24.9781 14.1815 24.9328 14.1362C24.8875 14.0909 24.8621 14.0295 24.8621 13.9655Z" fill="white"/>
<path d="M20.7032 13.7839C20.7214 13.8339 20.7249 13.8881 20.7134 13.9401C20.7019 13.9921 20.6758 14.0398 20.6381 14.0774L19.7982 14.9173C19.7722 14.9434 19.7414 14.9641 19.7074 14.9782C19.6734 14.9923 19.637 14.9996 19.6001 14.9996C19.5909 15.0001 19.5817 15.0001 19.5725 14.9996C19.5313 14.9956 19.4915 14.9824 19.456 14.9611C19.4204 14.9398 19.3901 14.9109 19.3671 14.8764L17.8249 12.5625L17.0806 13.3054V14.1597C17.0805 14.2339 17.0511 14.305 16.9987 14.3574C16.9987 14.3574 16.5087 14.8495 16.443 14.9131C16.4156 14.9418 16.3824 14.9642 16.3457 14.9789C16.2772 15.0068 16.2004 15.0065 16.1321 14.978C16.0638 14.9494 16.0097 14.8951 15.9814 14.8267L15.9793 14.8215L15.4648 13.535L14.176 13.0195C14.133 13.0023 14.0949 12.9748 14.0652 12.9392C14.0355 12.9037 14.0151 12.8614 14.0057 12.816C13.9964 12.7706 13.9985 12.7236 14.0118 12.6793C14.0251 12.6349 14.0491 12.5946 14.0819 12.5618L14.6418 12.0018C14.6679 11.9757 14.699 11.955 14.7331 11.941C14.7673 11.9269 14.8039 11.9198 14.8409 11.9199H15.6948L16.4391 11.1756L14.1256 9.63296C14.0911 9.61 14.0621 9.57966 14.0407 9.5441C14.0194 9.50859 14.0062 9.46874 14.0021 9.42748C13.998 9.38623 14.0032 9.3446 14.0171 9.30559C14.0311 9.26653 14.0536 9.23111 14.0829 9.2018L14.9227 8.3619C14.9605 8.32424 15.0081 8.29811 15.0601 8.28658C15.1121 8.27505 15.1663 8.2786 15.2164 8.2968L18.2238 9.39043L19.3272 8.287C19.511 8.10323 19.7602 8 20.0201 8C20.1488 8 20.2762 8.02534 20.3951 8.07457C20.514 8.12385 20.622 8.196 20.713 8.287C20.804 8.378 20.8761 8.48603 20.9254 8.60494C20.9747 8.72385 21 8.85124 21 8.97995C21 9.10861 20.9747 9.23606 20.9254 9.35496C20.8761 9.47382 20.804 9.58186 20.713 9.67286L19.6096 10.7763L20.7032 13.7839Z" fill="white"/>
<path fill-rule="evenodd" clip-rule="evenodd" d="M28 24.2066C28.0012 24.6022 27.8904 24.9903 27.6801 25.3267C27.4698 25.6633 27.1683 25.9347 26.81 26.1105L26.7715 26.1278L23.3739 27.5591C23.3403 27.5737 23.3054 27.5853 23.2697 27.5938L17.6697 28.9784C17.6143 28.9924 17.5573 28.9997 17.5 29H8.4C8.02867 29 7.67261 28.8541 7.41006 28.5945C7.14751 28.3348 7 27.9826 7 27.6153V24.1538C7 23.7866 7.14751 23.4344 7.41006 23.1748C7.67261 22.9151 8.02867 22.7692 8.4 22.7692H10.9104L12.8896 20.8109C13.1492 20.5531 13.4578 20.3486 13.7976 20.2094C14.1375 20.0703 14.5019 19.9991 14.8697 20H19.25C19.6197 20 19.9847 20.0827 20.3175 20.242C20.6504 20.4013 20.9424 20.633 21.1718 20.9199C21.4012 21.2066 21.562 21.5411 21.642 21.8981C21.7222 22.2551 21.7195 22.6254 21.6344 22.9813L25.2954 22.1488C25.6141 22.0653 25.9479 22.0553 26.2711 22.1196C26.5943 22.1839 26.8983 22.3207 27.1597 22.5195C27.421 22.7183 27.6326 22.9739 27.7783 23.2664C27.924 23.5589 27.9998 23.8805 28 24.2066ZM26.6 24.2066C26.5999 24.0922 26.5731 23.9793 26.5217 23.8767C26.4703 23.7741 26.3958 23.6846 26.3038 23.6151C26.2118 23.5456 26.1049 23.4981 25.9913 23.4761C25.8777 23.4541 25.7605 23.4583 25.6489 23.4884L25.6217 23.4953L19.7592 24.8288C19.7078 24.8402 19.6553 24.846 19.6026 24.8461H16.8C16.6144 24.8461 16.4363 24.7732 16.305 24.6434C16.1737 24.5135 16.1 24.3375 16.1 24.1538C16.1 23.9702 16.1737 23.7941 16.305 23.6643C16.4363 23.5345 16.6144 23.4615 16.8 23.4615H19.25C19.5285 23.4615 19.7955 23.3521 19.9925 23.1574C20.1893 22.9626 20.3 22.6985 20.3 22.4231C20.3 22.1477 20.1893 21.8835 19.9925 21.6888C19.7955 21.494 19.5285 21.3846 19.25 21.3846H14.8697C14.6858 21.384 14.5036 21.4196 14.3337 21.4893C14.1638 21.559 14.0097 21.6614 13.8801 21.7905L11.9 23.748V27.6153H17.4125L22.8751 26.2645L26.2001 24.8643C26.3211 24.8013 26.4224 24.7066 26.4929 24.5907C26.5634 24.4748 26.6004 24.3419 26.6 24.2066Z" fill="white"/>
<defs>
<filter id="filter0_d_113_14" x="0" y="0" width="56" height="65.7144" filterUnits="userSpaceOnUse" color-interpolation-filters="sRGB">
<feFlood flood-opacity="0" result="BackgroundImageFix"/>
<feColorMatrix in="SourceAlpha" type="matrix" values="0 0 0 0 0 0 0 0 0 0 0 0 0 0 0 0 0 0 127 0" result="hardAlpha"/>
<feOffset dx="10" dy="10"/>
<feGaussianBlur stdDeviation="5"/>
<feComposite in2="hardAlpha" operator="out"/>
<feColorMatrix type="matrix" values="0 0 0 0 0 0 0 0 0 0 0 0 0 0 0 0 0 0 0.25 0"/>
<feBlend mode="normal" in2="BackgroundImageFix" result="effect1_dropShadow_113_14"/>
<feBlend mode="normal" in="SourceGraphic" in2="effect1_dropShadow_113_14" result="shape"/>
</filter>
</defs>
</svg>
